<?xml version="1.0" standalone="no"?>
<!DOCTYPE svg PUBLIC "-//W3C//DTD SVG 20010904//EN"
 "http://www.w3.org/TR/2001/REC-SVG-20010904/DTD/svg10.dtd">
<svg version="1.0" xmlns="http://www.w3.org/2000/svg"
 width="225.000000pt" height="225.000000pt" viewBox="0 0 225.000000 225.000000"
 preserveAspectRatio="xMidYMid meet">

<g transform="translate(0.000000,225.000000) scale(0.100000,-0.100000)"
fill="#000000" stroke="none">
<path d="M1024 2122 c-28 -9 -187 -96 -354 -192 -323 -186 -376 -226 -420
-315 l-25 -50 -3 -411 c-3 -398 -2 -413 18 -468 39 -102 82 -136 430 -337 173
-100 335 -188 359 -196 56 -17 136 -17 192 0 24 8 186 96 359 196 348 201 391
235 430 337 20 55 21 70 18 468 l-3 411 -25 50 c-43 88 -96 128 -425 317 -373
216 -422 233 -551 190z m177 -86 c51 -18 629 -354 662 -385 16 -14 40 -47 53
-73 l24 -47 0 -391 c0 -371 -1 -392 -20 -433 -12 -24 -35 -58 -53 -75 -18 -17
-174 -113 -347 -214 l-315 -183 -80 0 -80 0 -315 183 c-173 101 -329 197 -347
214 -18 17 -41 51 -53 75 -19 41 -20 62 -20 433 l0 391 24 47 c13 26 37 59 53
73 34 31 611 367 662 385 46 17 106 17 152 0z"/>
<path d="M820 1520 c-353 -124 -355 -125 -228 -173 l76 -29 -19 -32 c-10 -18
-24 -59 -30 -91 -6 -33 -20 -70 -30 -84 -22 -28 -19 -63 8 -93 13 -15 14 -25
4 -64 -15 -57 -44 -117 -83 -166 l-29 -37 23 -15 c55 -35 76 -40 102 -22 59
38 79 108 67 230 -5 58 -4 79 6 88 18 14 16 59 -3 86 -13 19 -14 31 -4 77 14
69 38 99 109 135 90 45 331 140 356 140 27 0 41 -28 23 -46 -7 -7 -88 -43
-180 -80 -93 -37 -168 -70 -168 -73 0 -3 74 -31 164 -62 l163 -56 317 110
c287 100 317 112 314 131 -3 18 -48 37 -308 128 -168 59 -314 106 -325 106
-11 0 -157 -49 -325 -108z"/>
<path d="M1530 1211 c-8 -4 -98 -36 -200 -71 l-185 -63 -189 67 c-103 36 -192
66 -196 66 -4 0 -10 -14 -14 -31 -5 -25 0 -38 20 -62 21 -25 25 -38 21 -71 -2
-23 -8 -51 -12 -63 -6 -18 0 -25 37 -46 81 -48 188 -71 333 -71 184 0 319 38
383 107 21 22 22 31 20 135 -3 95 -5 110 -18 103z"/>
</g>
</svg>
