<?xml version="1.0" standalone="no"?>
<!DOCTYPE svg PUBLIC "-//W3C//DTD SVG 20010904//EN"
 "http://www.w3.org/TR/2001/REC-SVG-20010904/DTD/svg10.dtd">
<svg version="1.0" xmlns="http://www.w3.org/2000/svg"
 width="800.000000pt" height="800.000000pt" viewBox="0 0 800.000000 800.000000"
 preserveAspectRatio="xMidYMid meet">

<g transform="translate(0.000000,800.000000) scale(0.100000,-0.100000)"
fill="#000000" stroke="none">
<path d="M2217 6403 l-617 -618 2 -1925 3 -1925 26 -67 c39 -100 87 -175 155
-243 72 -71 145 -116 246 -153 l73 -27 958 -3 957 -2 0 90 0 90 -923 0 c-865
0 -927 1 -989 18 -151 42 -274 166 -314 317 -11 41 -14 384 -14 1874 l0 1823
23 -6 c132 -40 370 -47 507 -17 228 51 449 198 549 365 75 125 121 317 121
501 0 84 -22 283 -35 326 -6 19 20 19 1287 19 1063 0 1302 -3 1344 -14 177
-47 309 -196 334 -374 6 -47 10 -499 10 -1235 l0 -1162 87 -3 88 -3 -2 1223
c-3 1209 -3 1224 -24 1293 -33 109 -77 183 -159 265 -54 54 -98 87 -155 117
-152 78 -49 73 -1566 73 l-1354 0 -618 -617z"/>
<path d="M2470 5435 l0 -65 1375 0 1375 0 0 65 0 65 -1375 0 -1375 0 0 -65z"/>
<path d="M2474 4936 c-3 -7 -4 -38 -2 -67 l3 -54 1373 -3 1373 -2 -3 67 -3 68
-1368 3 c-1152 2 -1368 0 -1373 -12z"/>
<path d="M2474 4376 c-3 -7 -4 -38 -2 -67 l3 -54 1373 -3 1372 -2 0 70 0 70
-1370 0 c-1151 0 -1371 -2 -1376 -14z"/>
<path d="M4875 3826 c-54 -25 -94 -64 -144 -138 -17 -26 -39 -52 -49 -57 -9
-4 -52 -11 -94 -14 -94 -7 -150 -31 -205 -87 -47 -48 -68 -102 -78 -200 -9
-94 -10 -96 -80 -145 -86 -62 -121 -105 -141 -172 -22 -74 -15 -125 31 -227
l37 -84 -36 -81 c-46 -101 -54 -162 -31 -233 23 -71 54 -110 128 -160 34 -23
67 -49 74 -57 6 -9 14 -52 18 -96 16 -183 97 -266 280 -287 107 -12 98 -6 188
-128 20 -27 54 -57 87 -75 47 -25 66 -29 125 -29 59 1 82 6 148 37 42 21 82
37 88 37 6 0 48 -17 93 -37 166 -77 288 -40 394 118 43 65 50 68 138 75 100 8
163 35 213 89 53 57 69 100 77 198 8 91 4 86 124 180 77 60 105 119 105 217
-1 64 -5 84 -33 137 -18 34 -32 76 -32 92 0 16 14 59 32 97 74 158 38 283
-109 385 -78 54 -78 54 -88 164 -14 164 -108 258 -272 271 -95 8 -118 19 -154
76 -69 108 -150 158 -254 158 -49 0 -75 -7 -134 -35 -40 -19 -85 -35 -101 -35
-16 0 -61 16 -101 35 -92 44 -167 48 -244 11z m244 -90 c97 -44 112 -44 216 5
134 65 220 41 306 -83 61 -86 91 -104 186 -112 106 -10 136 -21 177 -66 39
-43 52 -83 61 -181 8 -80 29 -119 92 -162 114 -79 136 -111 136 -197 0 -43 -8
-71 -36 -130 -20 -41 -37 -87 -37 -103 0 -16 17 -66 37 -111 67 -145 44 -234
-81 -316 -87 -56 -103 -84 -114 -197 -16 -157 -68 -210 -220 -222 -112 -10
-145 -29 -202 -117 -80 -122 -171 -145 -309 -79 -93 45 -129 45 -222 0 -144
-69 -223 -44 -320 97 -49 72 -83 90 -185 98 -97 8 -148 31 -187 86 -23 33 -29
56 -37 134 -6 55 -17 106 -28 124 -10 16 -49 51 -87 77 -127 87 -148 170 -81
309 44 91 45 126 7 207 -44 93 -52 129 -40 182 14 61 45 99 121 149 79 51 96
80 104 173 7 93 19 132 51 170 38 45 89 66 178 74 103 9 137 29 200 118 90
127 158 143 314 73z"/>
<path d="M4922 3687 c-12 -7 -42 -43 -67 -79 -24 -36 -58 -76 -75 -88 -42 -30
-112 -50 -172 -50 -27 0 -63 -6 -81 -14 -50 -21 -68 -56 -77 -157 -11 -118
-37 -163 -130 -227 -112 -77 -121 -112 -65 -236 27 -60 35 -90 35 -134 0 -45
-8 -73 -35 -131 -53 -111 -46 -160 32 -214 118 -81 163 -148 163 -242 0 -122
39 -170 147 -180 143 -13 191 -40 264 -146 41 -61 80 -89 123 -89 14 0 59 16
102 35 106 48 167 48 272 -1 123 -57 153 -46 252 92 48 67 102 95 207 105 138
14 163 38 174 170 10 125 39 172 151 248 90 60 99 106 43 222 -27 56 -35 86
-35 127 0 41 9 74 35 132 58 128 48 166 -66 244 -93 65 -117 108 -128 229 -12
133 -40 160 -173 170 -112 8 -160 35 -225 127 -29 41 -63 80 -75 87 -39 21
-94 15 -160 -18 -38 -19 -83 -33 -118 -36 -50 -5 -68 -1 -141 31 -88 38 -138
44 -177 23z m509 -156 c344 -88 595 -378 639 -739 32 -257 -66 -522 -261 -708
-107 -101 -191 -151 -339 -200 -79 -26 -96 -28 -250 -28 -159 0 -168 1 -260
32 -288 96 -502 328 -571 617 -18 76 -20 111 -16 225 5 158 20 220 82 347 125
254 361 429 640 473 85 13 247 4 336 -19z"/>
<path d="M5092 3235 c-202 -48 -364 -207 -417 -406 -20 -73 -19 -222 1 -290
26 -88 72 -169 133 -232 113 -120 246 -178 404 -178 168 1 287 50 402 166 107
107 164 244 165 392 0 65 -17 163 -28 163 -4 -1 -28 -28 -54 -62 -37 -47 -48
-69 -48 -97 0 -59 -29 -161 -60 -216 -95 -165 -306 -252 -485 -200 -325 94
-423 505 -175 728 126 113 306 144 454 79 l44 -20 41 48 c23 27 41 51 41 54 0
3 -21 16 -47 30 -105 52 -256 69 -371 41z"/>
<path d="M5425 2926 c-104 -129 -196 -237 -203 -240 -7 -3 -59 36 -122 95 -77
70 -114 98 -123 92 -29 -17 -128 -133 -125 -146 4 -18 370 -357 385 -357 10 0
227 259 507 604 l47 58 -23 25 c-35 38 -123 103 -139 103 -8 0 -99 -106 -204
-234z"/>
<path d="M2477 3823 c-2 -5 -5 -34 -6 -65 l-2 -58 853 0 854 0 64 65 64 65
-911 0 c-502 0 -914 -3 -916 -7z"/>
<path d="M2472 3208 l3 -63 688 0 688 0 19 55 c11 30 19 58 20 63 0 4 -320 7
-710 7 l-711 0 3 -62z"/>
<path d="M2474 2706 c-3 -7 -4 -38 -2 -67 l3 -54 664 -3 664 -2 -7 37 c-3 21
-6 53 -6 71 l0 32 -655 0 c-546 0 -657 -2 -661 -14z"/>
<path d="M4461 1677 c-10 -29 -76 -200 -145 -381 -75 -196 -123 -333 -118
-338 5 -5 24 -8 42 -6 37 3 14 -47 205 451 65 169 116 309 114 311 -2 2 -21 6
-41 9 -37 6 -37 5 -57 -46z"/>
<path d="M5854 1712 c-21 -7 -14 -26 146 -427 l167 -420 42 -3 c22 -2 41 0 41
5 0 4 -75 198 -167 431 -179 451 -169 432 -229 414z"/>
<path d="M4492 1337 c-78 -204 -142 -375 -142 -379 0 -5 60 -8 133 -8 l132 -1
95 -84 c52 -47 97 -85 100 -85 3 0 27 55 52 123 26 67 85 223 132 346 47 123
86 227 86 230 0 3 -42 6 -93 7 -139 1 -211 41 -299 165 -22 33 -44 59 -47 59
-3 0 -70 -168 -149 -373z"/>
<path d="M5760 1661 c0 -23 -106 -122 -158 -148 -50 -24 -68 -28 -147 -28 -66
1 -99 5 -122 18 -18 10 -33 15 -33 11 0 -11 323 -819 331 -828 4 -5 49 29 101
76 l93 85 129 6 c71 4 131 9 134 11 6 7 -311 805 -320 806 -5 0 -8 -4 -8 -9z"/>
<path d="M5188 1537 c-9 -6 -85 -191 -168 -411 l-153 -398 31 -29 c17 -16 34
-25 37 -19 5 7 207 533 247 643 6 16 14 25 18 20 5 -4 76 -180 160 -390 162
-410 155 -398 202 -346 15 17 5 45 -166 475 -99 251 -184 459 -187 462 -3 3
-13 0 -21 -7z"/>
</g>
</svg>
